{
	"asset":{
		"generator":"Khronos glTF Blender I/O v3.6.27",
		"version":"2.0"
	},
	"extensionsUsed":[
		"KHR_materials_specular",
		"KHR_materials_ior"
	],
	"scene":0,
	"scenes":[
		{
			"name":"Scene",
			"nodes":[
				0,
				1,
				2,
				3,
				4,
				5,
				6,
				7
			]
		}
	],
	"nodes":[
		{
			"mesh":0,
			"name":"short_block"
		},
		{
			"mesh":1,
			"name":"red_wall"
		},
		{
			"mesh":2,
			"name":"light"
		},
		{
			"mesh":3,
			"name":"tall_block"
		},
		{
			"mesh":4,
			"name":"ceiling"
		},
		{
			"mesh":5,
			"name":"back_wall"
		},
		{
			"mesh":6,
			"name":"floor"
		},
		{
			"mesh":7,
			"name":"green_wall"
		}
	],
	"materials":[
		{
			"doubleSided":true,
			"extensions":{
				"KHR_materials_specular":{
					"specularColorFactor":[
						1,
						1,
						1
					]
				},
				"KHR_materials_ior":{
					"ior":1
				}
			},
			"name":"white",
			"pbrMetallicRoughness":{
				"metallicFactor":0,
				"roughnessFactor":0.696426510810852
			}
		},
		{
			"doubleSided":true,
			"extensions":{
				"KHR_materials_specular":{
					"specularColorFactor":[
						1,
						1,
						1
					]
				},
				"KHR_materials_ior":{
					"ior":1
				}
			},
			"name":"red",
			"pbrMetallicRoughness":{
				"baseColorFactor":[
					1,
					0,
					0,
					1
				],
				"metallicFactor":0,
				"roughnessFactor":0.696426510810852
			}
		},
		{
			"doubleSided":true,
			"extensions":{
				"KHR_materials_specular":{
					"specularColorFactor":[
						1,
						1,
						1
					]
				},
				"KHR_materials_ior":{
					"ior":1
				}
			},
			"name":"light",
			"pbrMetallicRoughness":{
				"metallicFactor":0,
				"roughnessFactor":0.696426510810852
			}
		},
		{
			"doubleSided":true,
			"extensions":{
				"KHR_materials_specular":{
					"specularColorFactor":[
						1,
						1,
						1
					]
				},
				"KHR_materials_ior":{
					"ior":1
				}
			},
			"name":"green",
			"pbrMetallicRoughness":{
				"baseColorFactor":[
					0,
					1,
					0,
					1
				],
				"metallicFactor":0,
				"roughnessFactor":0.696426510810852
			}
		}
	],
	"meshes":[
		{
			"name":"short_block",
			"primitives":[
				{
					"attributes":{
						"POSITION":0,
						"NORMAL":1
					},
					"indices":2,
					"material":0
				}
			]
		},
		{
			"name":"red_wall",
			"primitives":[
				{
					"attributes":{
						"POSITION":3,
						"NORMAL":4
					},
					"indices":5,
					"material":1
				}
			]
		},
		{
			"name":"light",
			"primitives":[
				{
					"attributes":{
						"POSITION":6,
						"NORMAL":7
					},
					"indices":5,
					"material":2
				}
			]
		},
		{
			"name":"tall_block",
			"primitives":[
				{
					"attributes":{
						"POSITION":8,
						"NORMAL":9
					},
					"indices":2,
					"material":0
				}
			]
		},
		{
			"name":"ceiling",
			"primitives":[
				{
					"attributes":{
						"POSITION":10,
						"NORMAL":11
					},
					"indices":5,
					"material":0
				}
			]
		},
		{
			"name":"back_wall",
			"primitives":[
				{
					"attributes":{
						"POSITION":12,
						"NORMAL":13
					},
					"indices":5,
					"material":0
				}
			]
		},
		{
			"name":"floor",
			"primitives":[
				{
					"attributes":{
						"POSITION":14,
						"NORMAL":15
					},
					"indices":16,
					"material":0
				}
			]
		},
		{
			"name":"green_wall",
			"primitives":[
				{
					"attributes":{
						"POSITION":17,
						"NORMAL":18
					},
					"indices":5,
					"material":3
				}
			]
		}
	],
	"accessors":[
		{
			"bufferView":0,
			"componentType":5126,
			"count":20,
			"max":[
				0.04473457485437393,
				-0.38782408833503723,
				-0.1246776357293129
			],
			"min":[
				-0.6747078895568848,
				-0.95853590965271,
				-0.8406615853309631
			],
			"type":"VEC3"
		},
		{
			"bufferView":1,
			"componentType":5126,
			"count":20,
			"type":"VEC3"
		},
		{
			"bufferView":2,
			"componentType":5123,
			"count":30,
			"type":"SCALAR"
		},
		{
			"bufferView":3,
			"componentType":5126,
			"count":4,
			"max":[
				0.9647907614707947,
				0.9396858811378479,
				0.868707001209259
			],
			"min":[
				0.942654013633728,
				-0.9585365056991577,
				-1.065487265586853
			],
			"type":"VEC3"
		},
		{
			"bufferView":4,
			"componentType":5126,
			"count":4,
			"type":"VEC3"
		},
		{
			"bufferView":5,
			"componentType":5123,
			"count":6,
			"type":"SCALAR"
		},
		{
			"bufferView":6,
			"componentType":5126,
			"count":4,
			"max":[
				0.22805404663085938,
				0.9369182586669922,
				0.0828544870018959
			],
			"min":[
				-0.22159752249717712,
				0.9369182586669922,
				-0.28032538294792175
			],
			"type":"VEC3"
		},
		{
			"bufferView":7,
			"componentType":5126,
			"count":4,
			"type":"VEC3"
		},
		{
			"bufferView":8,
			"componentType":5126,
			"count":20,
			"max":[
				0.6742467880249023,
				0.1828872710466385,
				0.5117524862289429
			],
			"min":[
				-0.04173688590526581,
				-0.9585362672805786,
				-0.21114934980869293
			],
			"type":"VEC3"
		},
		{
			"bufferView":9,
			"componentType":5126,
			"count":20,
			"type":"VEC3"
		},
		{
			"bufferView":10,
			"componentType":5126,
			"count":4,
			"max":[
				0.9647908210754395,
				0.9396858811378479,
				0.868707001209259
			],
			"min":[
				-0.95833420753479,
				0.9396849274635315,
				-1.065486192703247
			],
			"type":"VEC3"
		},
		{
			"bufferView":11,
			"componentType":5126,
			"count":4,
			"type":"VEC3"
		},
		{
			"bufferView":12,
			"componentType":5126,
			"count":4,
			"max":[
				0.9647908210754395,
				0.9396849274635315,
				0.868707001209259
			],
			"min":[
				-0.95833420753479,
				-0.9585365056991577,
				0.8687061071395874
			],
			"type":"VEC3"
		},
		{
			"bufferView":13,
			"componentType":5126,
			"count":4,
			"type":"VEC3"
		},
		{
			"bufferView":14,
			"componentType":5126,
			"count":12,
			"max":[
				0.953722357749939,
				-0.958535373210907,
				0.8687061071395874
			],
			"min":[
				-0.95833420753479,
				-0.9585365056991577,
				-1.065487265586853
			],
			"type":"VEC3"
		},
		{
			"bufferView":15,
			"componentType":5126,
			"count":12,
			"type":"VEC3"
		},
		{
			"bufferView":16,
			"componentType":5123,
			"count":18,
			"type":"SCALAR"
		},
		{
			"bufferView":17,
			"componentType":5126,
			"count":4,
			"max":[
				-0.95833420753479,
				0.9396858811378479,
				0.868707001209259
			],
			"min":[
				-0.95833420753479,
				-0.9585365056991577,
				-1.065487265586853
			],
			"type":"VEC3"
		},
		{
			"bufferView":18,
			"componentType":5126,
			"count":4,
			"type":"VEC3"
		}
	],
	"bufferViews":[
		{
			"buffer":0,
			"byteLength":240,
			"byteOffset":0,
			"target":34962
		},
		{
			"buffer":0,
			"byteLength":240,
			"byteOffset":240,
			"target":34962
		},
		{
			"buffer":0,
			"byteLength":60,
			"byteOffset":480,
			"target":34963
		},
		{
			"buffer":0,
			"byteLength":48,
			"byteOffset":540,
			"target":34962
		},
		{
			"buffer":0,
			"byteLength":48,
			"byteOffset":588,
			"target":34962
		},
		{
			"buffer":0,
			"byteLength":12,
			"byteOffset":636,
			"target":34963
		},
		{
			"buffer":0,
			"byteLength":48,
			"byteOffset":648,
			"target":34962
		},
		{
			"buffer":0,
			"byteLength":48,
			"byteOffset":696,
			"target":34962
		},
		{
			"buffer":0,
			"byteLength":240,
			"byteOffset":744,
			"target":34962
		},
		{
			"buffer":0,
			"byteLength":240,
			"byteOffset":984,
			"target":34962
		},
		{
			"buffer":0,
			"byteLength":48,
			"byteOffset":1224,
			"target":34962
		},
		{
			"buffer":0,
			"byteLength":48,
			"byteOffset":1272,
			"target":34962
		},
		{
			"buffer":0,
			"byteLength":48,
			"byteOffset":1320,
			"target":34962
		},
		{
			"buffer":0,
			"byteLength":48,
			"byteOffset":1368,
			"target":34962
		},
		{
			"buffer":0,
			"byteLength":144,
			"byteOffset":1416,
			"target":34962
		},
		{
			"buffer":0,
			"byteLength":144,
			"byteOffset":1560,
			"target":34962
		},
		{
			"buffer":0,
			"byteLength":36,
			"byteOffset":1704,
			"target":34963
		},
		{
			"buffer":0,
			"byteLength":48,
			"byteOffset":1740,
			"target":34962
		},
		{
			"buffer":0,
			"byteLength":48,
			"byteOffset":1788,
			"target":34962
		}
	],
	"buffers":[
		{
			"byteLength":1836,
			"uri":"data:application/octet-stream;base64,"
		}
	]
}
