{
	"asset":{
		"generator":"Khronos glTF Blender I/O v3.6.27",
		"version":"2.0"
	},
	"scene":0,
	"scenes":[
		{
			"name":"Scene",
			"nodes":[
				0,
				1,
				2,
				3
			]
		}
	],
	"nodes":[
		{
			"mesh":0,
			"name":"Cube"
		},
		{
			"mesh":1,
			"name":"stanford-bunny",
			"scale":[
				1.670388102531433,
				1.670388102531433,
				1.670388102531433
			]
		},
		{
			"mesh":2,
			"name":"Sphere",
			"scale":[
				1.670388102531433,
				1.670388102531433,
				1.670388102531433
			]
		},
		{
			"mesh":3,
			"name":"Cylinder",
			"scale":[
				1.670388102531433,
				1.670388102531433,
				1.670388102531433
			]
		}
	],
	"materials":[
		{
			"doubleSided":true,
			"name":"Material.001",
			"pbrMetallicRoughness":{
				"metallicFactor":0,
				"roughnessFactor":0.5
			}
		},
		{
			"doubleSided":true,
			"name":"Default OBJ",
			"pbrMetallicRoughness":{
				"baseColorFactor":[
					0.800000011920929,
					0.800000011920929,
					0.800000011920929,
					1
				],
				"metallicFactor":0,
				"roughnessFactor":0.5
			}
		}
	],
	"meshes":[
		{
			"name":"Cube.001",
			"primitives":[
				{
					"attributes":{
						"COLOR_0":0,
						"POSITION":1,
						"NORMAL":2,
						"TEXCOORD_0":3
					},
					"indices":4,
					"material":0
				}
			]
		},
		{
			"name":"stanford-bunny",
			"primitives":[
				{
					"attributes":{
						"COLOR_0":5,
						"POSITION":6,
						"NORMAL":7
					},
					"indices":8,
					"material":1
				}
			]
		},
		{
			"name":"Sphere",
			"primitives":[
				{
					"attributes":{
						"POSITION":9,
						"NORMAL":10,
						"TEXCOORD_0":11
					},
					"indices":12
				}
			]
		},
		{
			"name":"Cylinder.001",
			"primitives":[
				{
					"attributes":{
						"COLOR_0":13,
						"POSITION":14,
						"NORMAL":15,
						"TEXCOORD_0":16
					},
					"indices":17
				}
			]
		}
	],
	"accessors":[
		{
			"bufferView":0,
			"componentType":5123,
			"count":24,
			"normalized":true,
			"type":"VEC4"
		},
		{
			"bufferView":1,
			"componentType":5126,
			"count":24,
			"max":[
				0.945000171661377,
				0.9450000524520874,
				0.9450000524520874
			],
			"min":[
				-0.9450000524520874,
				-0.9450000524520874,
				-0.9450000524520874
			],
			"type":"VEC3"
		},
		{
			"bufferView":2,
			"componentType":5126,
			"count":24,
			"type":"VEC3"
		},
		{
			"bufferView":3,
			"componentType":5126,
			"count":24,
			"type":"VEC2"
		},
		{
			"bufferView":4,
			"componentType":5123,
			"count":36,
			"type":"SCALAR"
		},
		{
			"bufferView":5,
			"componentType":5123,
			"count":34834,
			"normalized":true,
			"type":"VEC4"
		},
		{
			"bufferView":6,
			"componentType":5126,
			"count":34834,
			"max":[
				0.24783344566822052,
				0.24369439482688904,
				0.3069436550140381
			],
			"min":[
				-0.4393804669380188,
				-0.43749481439590454,
				-0.2256791740655899
			],
			"type":"VEC3"
		},
		{
			"bufferView":7,
			"componentType":5126,
			"count":34834,
			"type":"VEC3"
		},
		{
			"bufferView":8,
			"componentType":5123,
			"count":208353,
			"type":"SCALAR"
		},
		{
			"bufferView":9,
			"componentType":5126,
			"count":1984,
			"max":[
				-0.05002725124359131,
				0.3299846053123474,
				-0.10531704127788544
			],
			"min":[
				-0.3729252219200134,
				0.007086440920829773,
				-0.4282150864601135
			],
			"type":"VEC3"
		},
		{
			"bufferView":10,
			"componentType":5126,
			"count":1984,
			"type":"VEC3"
		},
		{
			"bufferView":11,
			"componentType":5126,
			"count":1984,
			"type":"VEC2"
		},
		{
			"bufferView":12,
			"componentType":5123,
			"count":2880,
			"type":"SCALAR"
		},
		{
			"bufferView":13,
			"componentType":5123,
			"count":130,
			"normalized":true,
			"type":"VEC4"
		},
		{
			"bufferView":14,
			"componentType":5126,
			"count":130,
			"max":[
				0.013014785945415497,
				0.41320088505744934,
				0.4232853055000305
			],
			"min":[
				-0.20020782947540283,
				-0.41320088505744934,
				0.2100626826286316
			],
			"type":"VEC3"
		},
		{
			"bufferView":15,
			"componentType":5126,
			"count":130,
			"type":"VEC3"
		},
		{
			"bufferView":16,
			"componentType":5126,
			"count":130,
			"type":"VEC2"
		},
		{
			"bufferView":17,
			"componentType":5123,
			"count":372,
			"type":"SCALAR"
		}
	],
	"bufferViews":[
		{
			"buffer":0,
			"byteLength":192,
			"byteOffset":0,
			"target":34962
		},
		{
			"buffer":0,
			"byteLength":288,
			"byteOffset":192,
			"target":34962
		},
		{
			"buffer":0,
			"byteLength":288,
			"byteOffset":480,
			"target":34962
		},
		{
			"buffer":0,
			"byteLength":192,
			"byteOffset":768,
			"target":34962
		},
		{
			"buffer":0,
			"byteLength":72,
			"byteOffset":960,
			"target":34963
		},
		{
			"buffer":0,
			"byteLength":278672,
			"byteOffset":1032,
			"target":34962
		},
		{
			"buffer":0,
			"byteLength":418008,
			"byteOffset":279704,
			"target":34962
		},
		{
			"buffer":0,
			"byteLength":418008,
			"byteOffset":697712,
			"target":34962
		},
		{
			"buffer":0,
			"byteLength":416706,
			"byteOffset":1115720,
			"target":34963
		},
		{
			"buffer":0,
			"byteLength":23808,
			"byteOffset":1532428,
			"target":34962
		},
		{
			"buffer":0,
			"byteLength":23808,
			"byteOffset":1556236,
			"target":34962
		},
		{
			"buffer":0,
			"byteLength":15872,
			"byteOffset":1580044,
			"target":34962
		},
		{
			"buffer":0,
			"byteLength":5760,
			"byteOffset":1595916,
			"target":34963
		},
		{
			"buffer":0,
			"byteLength":1040,
			"byteOffset":1601676,
			"target":34962
		},
		{
			"buffer":0,
			"byteLength":1560,
			"byteOffset":1602716,
			"target":34962
		},
		{
			"buffer":0,
			"byteLength":1560,
			"byteOffset":1604276,
			"target":34962
		},
		{
			"buffer":0,
			"byteLength":1040,
			"byteOffset":1605836,
			"target":34962
		},
		{
			"buffer":0,
			"byteLength":744,
			"byteOffset":1606876,
			"target":34963
		}
	],
	"buffers":[
		{
			"byteLength":1607620,
			"uri":"data:application/octet-stream;base64,"
		}
	]
}
